<?xml version="1.0" encoding="iso-8859-1"?>
<!-- Generator: Adobe Illustrator 19.0.0, SVG Export Plug-In . SVG Version: 6.00 Build 0)  -->
<svg version="1.1" id="Capa_1" xmlns="http://www.w3.org/2000/svg" xmlns:xlink="http://www.w3.org/1999/xlink" x="0px" y="0px"
	 viewBox="0 0 468.293 468.293" style="enable-background:new 0 0 468.293 468.293;" xml:space="preserve">
<polygon style="fill:#E56353;" points="468.293,234.61 468.293,323.621 318.065,323.621 318.065,161.728 425.841,161.728 "/>
<path style="fill:#EBF0F3;" d="M328.209,105.938v217.683H0V105.938c0-12.832,10.397-23.229,23.229-23.229h281.75
	C317.811,82.709,328.209,93.106,328.209,105.938z"/>
<path style="fill:#D5D6DB;" d="M328.186,105.944v217.662H217.669c-120.195,0-217.662-97.467-217.662-217.662
	c0-0.813,0.062-1.623,0.125-2.373c0.562-5.494,2.934-10.364,6.681-14.049c4.184-4.183,9.991-6.805,16.422-6.805h281.724
	C317.822,82.717,328.186,93.081,328.186,105.944z"/>
<path style="fill:#64798A;" d="M468.293,348.118v-27.033h-40.727c-1.471-2.13-3.094-4.108-4.92-5.934
	c-8.064-8.166-19.273-13.237-31.648-13.237c-12.375,0-23.584,5.072-31.648,13.237c-1.826,1.826-3.449,3.804-4.869,5.934H113.812
	c-1.471-2.13-3.094-4.108-4.92-5.934c-8.064-8.166-19.273-13.237-31.648-13.237s-23.584,5.072-31.649,13.237
	c-1.826,1.826-3.449,3.804-4.869,5.934H0v27.033H468.293z"/>
<polygon style="fill:#27A2DB;" points="447.803,246.834 447.803,267.831 344.033,267.831 344.033,184.145 411.285,184.145 "/>
<path style="fill:#2F4859;" d="M430.201,346.376c0,21.644-17.564,39.208-39.207,39.208c-21.645,0-39.159-17.564-39.159-39.208
	c0-21.644,17.514-39.158,39.159-39.158C412.637,307.218,430.201,324.732,430.201,346.376z"/>
<path style="fill:#64798A;" d="M417.127,346.384c0,14.422-11.703,26.125-26.125,26.125c-14.422,0-26.093-11.704-26.093-26.125
	c0-14.422,11.67-26.092,26.093-26.092C405.423,320.292,417.127,331.962,417.127,346.384z"/>
<path style="fill:#EBF0F3;" d="M397.665,344.66l17.936,10.576c-0.563,1.525-1.259,3.017-2.088,4.41l-16.577-9.747l5.205,20.125
	c-1.459,0.696-2.984,1.26-4.575,1.658l-4.84-18.633l-10.544,17.903c-1.558-0.53-3.05-1.227-4.442-2.056l9.747-16.544l-20.092,5.172
	c-0.696-1.459-1.259-2.984-1.658-4.575l18.633-4.84l-17.904-10.543c0.531-1.558,1.227-3.05,2.056-4.443l16.544,9.78l-5.205-20.125
	c1.459-0.696,3.017-1.26,4.609-1.658l4.807,18.599l10.543-17.903c1.558,0.564,3.017,1.26,4.443,2.089l-9.781,16.577l20.125-5.238
	c0.729,1.459,1.293,3.017,1.691,4.608L397.665,344.66z"/>
<path style="fill:#2F4859;" d="M116.441,346.376c0,21.644-17.564,39.208-39.207,39.208c-21.645,0-39.159-17.564-39.159-39.208
	c0-21.644,17.514-39.158,39.159-39.158C98.877,307.218,116.441,324.732,116.441,346.376z"/>
<path style="fill:#64798A;" d="M103.367,346.384c0,14.422-11.704,26.125-26.125,26.125c-14.422,0-26.093-11.704-26.093-26.125
	c0-14.422,11.67-26.092,26.093-26.092C91.664,320.292,103.367,331.962,103.367,346.384z"/>
<path style="fill:#EBF0F3;" d="M83.906,344.66l17.936,10.576c-0.563,1.525-1.259,3.017-2.088,4.41l-16.577-9.747l5.205,20.125
	c-1.459,0.696-2.984,1.26-4.575,1.658l-4.84-18.633l-10.544,17.903c-1.558-0.53-3.05-1.227-4.442-2.056l9.747-16.544l-20.092,5.172
	c-0.696-1.459-1.259-2.984-1.658-4.575l18.633-4.84l-17.904-10.543c0.531-1.558,1.227-3.05,2.056-4.443l16.544,9.78l-5.205-20.125
	c1.459-0.696,3.017-1.26,4.609-1.658l4.807,18.599l10.543-17.903c1.558,0.564,3.017,1.26,4.443,2.089l-9.781,16.577l20.125-5.238
	c0.729,1.459,1.293,3.017,1.691,4.608L83.906,344.66z"/>
<g>
</g>
<g>
</g>
<g>
</g>
<g>
</g>
<g>
</g>
<g>
</g>
<g>
</g>
<g>
</g>
<g>
</g>
<g>
</g>
<g>
</g>
<g>
</g>
<g>
</g>
<g>
</g>
<g>
</g>
</svg>
